[center]

[img]http://img42.imageshack.us/img42/1825/rise20of20the20planet20.jpg[/img]




Rise.of.the.Planet.of.the.Apes.2011.BDRip.XVID.AC3.HQ.Hive-CM8


Thx Hive

CM8 Doing It Right The First Time 

Source: Bluray

Video: 720x304 @bitrate 1800 2pass

Audio: English DTS to AC3 5.1 @448

Ape subs: yes hardcoded for Ape Speaking/Signing Parts only 
retimed them from the previous ts
Full Subs: yes also in srt /subs. For my hard of hearing friends
Is there anything a BDRip cant do

 
http://www.imdb.com/title/tt1318514/


General
Complete name                  : Rise.of.the.Planet.of.the.Apes.2011.BDRip.XVID.AC3.HQ.Hive-CM8.avi
Format                         : AVI
Format/Info                    : Audio Video Interleave
File size                      : 1.65 GiB
Duration                       : 1h 44mn
Overall bit rate               : 2 256 Kbps
Writing application            : Nandub v1.0rc2
Writing library                : Nandub build 1853/release

Video
ID                             : 0
Format                         : MPEG-4 Visual
Format profile                 : Advanced Simple@L5
Format settings, BVOP          : 2
Format settings, QPel          : Yes
Format settings, GMC           : No warppoints
Format settings, Matrix        : Default (H.263)
Muxing mode                    : Packed bitstream
Codec ID                       : XVID
Codec ID/Hint                  : XviD
Duration                       : 1h 44mn
Bit rate                       : 1 799 Kbps
Width                          : 720 pixels
Height                         : 304 pixels
Display aspect ratio           : 2.35:1
Frame rate                     : 23.976 fps
Color space                    : YUV
Chroma subsampling             : 4:2:0
Bit depth                      : 8 bits
Scan type                      : Progressive
Compression mode               : Lossy
Bits/(Pixel*Frame)             : 0.343
Stream size                    : 1.32 GiB (80%)
Writing library                : XviD 1.2.1 (UTC 2008-12-04)

Audio
ID                             : 1
Format                         : AC-3
Format/Info                    : Audio Coding 3
Mode extension                 : CM (complete main)
Codec ID                       : 2000
Duration                       : 1h 44mn
Bit rate mode                  : Constant
Bit rate                       : 448 Kbps
Channel(s)                     : 6 channels
Channel positions              : Front: L C R, Side: L R, LFE
Sampling rate                  : 48.0 KHz
Bit depth                      : 16 bits
Compression mode               : Lossy
Stream size                    : 336 MiB (20%)
Alignment                      : Split accross interleaves
Interleave, duration           : 42 ms (1.00 video frame)
Interleave, preload duration   : 500 ms


Plot:

An origin story set in present day San Francisco, where man\'s own experiments with genetic engineering 
lead to the development of intelligence in apes and the onset of a war for supremacy. 

Cast:

James Franco	... Will Rodman
Freida Pinto	... Caroline Aranha
John Lithgow	... Charles Rodman
Brian Cox	... John Landon
Tom Felton	... Dodge Landon


[img]http://img585.imageshack.us/img585/573/riris.png[/img]
[img]http://img543.imageshack.us/img543/4479/ririri.png[/img]
[img]http://img696.imageshack.us/img696/4534/riririri.png[/img]
[img]http://img831.imageshack.us/img831/1738/ririririri.png[/img]
[img]http://img403.imageshack.us/img403/1157/riririririri.png[/img]
[img]http://img546.imageshack.us/img546/3720/ririririririri.png[/img]
[img]http://img214.imageshack.us/img214/328/riririririririri.png[/img]
[img]http://img845.imageshack.us/img845/4971/ririririririririri.png[/img][/center]